<svg width="390" height="77" viewBox="0 0 390 77" fill="none" xmlns="http://www.w3.org/2000/svg">
<path d="M28.6827 0.28125C32.7033 5.95744 35.3048 15.4962 34.4377 22.3549C33.594 21.8734 32.7219 21.3084 31.7494 20.6784C28.4089 18.5143 23.8834 15.5824 15.2511 12.6288C25.1352 9.58366 27.2637 5.40544 28.6827 0.28125Z" fill="#0032F6"/>
<path d="M79.6324 47.7755C70.0006 34.2005 50.1172 21.0592 39.3002 18.4131C46.0073 22.2803 48.5561 29.1521 49.2076 35.1526C48.6208 32.2545 47.3986 28.9779 45.1601 26.3202C42.9254 25.0274 40.7149 23.9316 38.5918 23.0102C45.9286 33.235 46.8559 41.8442 45.0728 48.2128C54.4295 43.6698 64.5795 47.9033 68.2526 50.9231C67.132 48.5888 65.8895 46.4125 64.5516 44.3849C61.8403 43.2375 58.8824 42.3257 56.1422 42.1387C65.1184 41.4966 76.4864 45.9802 79.6324 47.7755Z" fill="#0032F6"/>
<path d="M60.6634 71.4112C71.2442 72.0631 73.7437 67.7054 72.662 65.6824C74.1995 66.9322 75.7786 75.6786 66.4277 76.7243C60.4617 77.123 55.4589 75.1653 49.8722 72.9791C39.5432 68.9371 27.2186 64.1142 3.12245 71.9591C5.65842 70.8102 8.11089 69.862 10.4834 69.088C10.5228 68.9639 10.5683 68.8418 10.6134 68.7207C11.035 67.5891 11.4252 66.5418 6.52296 64.7325C6.36086 64.4851 6.396 64.3231 6.43973 64.1215C6.44652 64.0902 6.45354 64.0579 6.46005 64.0241C43.2252 61.9799 73.1251 51.4844 80.0551 49.0518L80.056 49.0515C80.5003 48.8955 80.8501 48.7727 81.1013 48.6875C81.3512 48.6026 81.587 48.7458 81.6704 48.9963C81.7699 49.2949 81.59 49.6355 81.2911 49.734C78.2191 50.7458 64.3366 55.98 60.0888 58.3539C55.3535 61.0002 53.9614 62.2783 52.4221 67.5907C38.02 64.9611 28.7361 65.2535 21.0361 66.6329C32.7211 65.0166 42.1681 67.3821 49.9596 69.333C53.9321 70.3278 57.4743 71.2147 60.6634 71.4112Z" fill="#0032F6"/>
<path d="M39.3455 58.4182C41.8936 48.8936 39.3455 33.2708 34.6467 24.3082C27.4882 24.6116 18.1104 19.3434 14.0851 13.5002C16.3533 19.5631 19.2399 32.9791 20.3971 44.0111C19.7821 41.0551 18.7432 37.8744 17.3305 33.9669C12.8058 33.9669 4.97469 29.3552 0.710938 24.8303C8.6293 37.5346 7.84585 54.5896 5.8445 61.8119C11.6745 59.1144 14.9648 60.1689 18.9839 61.8119C20.0197 58.3591 20.6501 55.4739 20.9099 52.8097C20.8941 55.555 20.6442 57.7938 20.0891 59.2319C29.6331 55.4662 35.3264 56.7752 39.3455 58.4182Z" fill="#0032F6"/>
<path d="M106.559 11.7225H118.391C125.062 11.7225 129.931 13.1589 132.999 16.0318C136.115 18.856 137.673 22.7514 137.673 27.7181C137.673 33.4638 135.993 37.8705 132.634 40.9382C129.274 44.0058 124.283 45.5396 117.661 45.5396H114.812V65.4063H106.559V11.7225ZM117.88 38.3088C122.165 38.3088 125.159 37.3592 126.863 35.4602C128.568 33.5612 129.42 31.2726 129.42 28.5945C129.42 25.7217 128.592 23.3844 126.937 21.5828C125.281 19.7811 122.505 18.8803 118.61 18.8803H114.812V38.3088H117.88Z" fill="#0032F6"/>
<path d="M144.121 11.7225H167.639V18.8803H152.228V33.7073H164.645V41.0112H152.228V58.1754H170.05V65.4063H144.121V11.7225Z" fill="#0032F6"/>
<path d="M177.193 11.7225H185.446V58.1024H200.857V65.4063H177.193V11.7225Z" fill="#0032F6"/>
<path d="M232.786 11.6493L258.642 65.4062H249.22L244.618 54.8885H220.004L215.403 65.4062H206.273L231.982 11.6493H232.786ZM229.134 34.5106L223.291 47.5116H241.404L235.634 34.5836L232.494 27.2067H232.348L229.134 34.5106Z" fill="#0032F6"/>
<path d="M284.18 66.1366C278.873 66.1366 274.125 64.9193 269.938 62.4846C265.75 60.05 262.463 56.7145 260.077 52.4782C257.74 48.1933 256.571 43.397 256.571 38.0895C256.571 32.9281 257.764 28.2779 260.15 24.139C262.536 20.0002 265.847 16.7621 270.084 14.4248C274.32 12.0876 279.092 10.9189 284.399 10.9189C287.272 10.9189 289.853 11.1868 292.141 11.7224C294.479 12.2093 296.378 12.7936 297.839 13.4753C299.299 14.1083 300.297 14.6683 300.833 15.1552L297.619 22.0209C294.6 19.5863 290.145 18.3689 284.253 18.3689C280.358 18.3689 276.974 19.2211 274.101 20.9253C271.228 22.6296 269.037 24.9425 267.527 27.864C266.018 30.7856 265.263 34.048 265.263 37.6513C265.263 41.7415 266.066 45.3934 267.673 48.6072C269.329 51.8209 271.593 54.3286 274.466 56.1302C277.388 57.8831 280.674 58.7596 284.326 58.7596C286.615 58.7596 288.806 58.4918 290.9 57.9562C292.994 57.3719 294.771 56.4711 296.232 55.2537V44.8822H285.203V37.3591H304.339V58.3944C302.586 60.5856 299.932 62.4359 296.378 63.9454C292.872 65.4062 288.806 66.1366 284.18 66.1366Z" fill="#0032F6"/>
<path d="M330.862 66.1366C324.143 66.1366 319.274 64.1158 316.255 60.0743C313.236 56.0328 311.726 50.1653 311.726 42.4719V11.7224H319.907V42.618C319.907 48.315 320.759 52.4052 322.463 54.8885C324.167 57.3232 326.967 58.5405 330.862 58.5405C334.758 58.5405 337.533 57.3475 339.189 54.9616C340.893 52.5269 341.745 48.4124 341.745 42.618V11.7224H349.999V42.4719C349.999 50.1166 348.392 55.9841 345.178 60.0743C342.013 64.1158 337.241 66.1366 330.862 66.1366Z" fill="#0032F6"/>
<path d="M371.991 66.1366C369.07 66.1366 366.173 65.6253 363.3 64.6027C360.427 63.5802 358.357 62.4359 357.091 61.1699L360.963 54.2312C361.985 55.1563 363.568 56.1302 365.71 57.1527C367.901 58.1266 369.995 58.6135 371.991 58.6135C374.572 58.6135 376.666 58.0049 378.273 56.7876C379.928 55.5702 380.756 53.8903 380.756 51.7479C380.756 50.0923 380.318 48.6559 379.441 47.4385C378.565 46.2212 377.494 45.223 376.228 44.4439C374.962 43.6162 373.16 42.618 370.823 41.4493C368.047 40.0859 366.148 39.0634 365.126 38.3817C360.403 35.2166 358.041 30.8343 358.041 25.2346C358.041 20.6088 359.575 17.0786 362.642 14.6439C365.71 12.1606 369.581 10.9189 374.256 10.9189C379.271 10.9189 383.532 12.3554 387.038 15.2283L383.166 21.8748C382.241 20.901 380.927 20.0732 379.222 19.3915C377.567 18.6611 375.79 18.2959 373.891 18.2959C371.456 18.2959 369.533 18.8559 368.12 19.9758C366.757 21.047 366.075 22.6539 366.075 24.7964C366.075 26.3059 366.514 27.6693 367.39 28.8866C368.267 30.0552 369.362 31.0778 370.677 31.9542C372.04 32.8307 373.866 33.9019 376.155 35.168C378.346 36.3853 380.026 37.3591 381.194 38.0895C382.363 38.7712 383.459 39.599 384.481 40.5729C385.893 41.8389 387.038 43.3483 387.914 45.1013C388.79 46.8542 389.229 48.7776 389.229 50.8714C389.229 54.1338 388.474 56.9093 386.965 59.1978C385.504 61.4864 383.459 63.215 380.829 64.3836C378.249 65.5523 375.303 66.1366 371.991 66.1366Z" fill="#0032F6"/>
</svg>
